<?xml version="1.0" encoding="utf-8"?>
<!-- Generator: Adobe Illustrator 25.2.1, SVG Export Plug-In . SVG Version: 6.00 Build 0)  -->
<svg version="1.1" id="Layer_1" xmlns="http://www.w3.org/2000/svg" xmlns:xlink="http://www.w3.org/1999/xlink" x="0px" y="0px"
	 viewBox="0 0 24 8.7" style="enable-background:new 0 0 24 8.7;" xml:space="preserve">
<path d="M3,4.3c0,0.8,0.7,1.5,1.5,1.5C5.3,5.8,6,5.2,6,4.3S5.3,2.8,4.5,2.8C3.7,2.8,3,3.5,3,4.3z M18,4.4c0,0.8,0.7,1.5,1.5,1.5
	c0.8,0,1.5-0.7,1.5-1.5c0-0.8-0.7-1.5-1.5-1.5C18.7,2.9,18,3.5,18,4.4z M10.5,4.3c0,0.8,0.7,1.5,1.5,1.5s1.5-0.7,1.5-1.5
	S12.8,2.8,12,2.8S10.5,3.5,10.5,4.3z"/>
</svg>
